<svg version="1.1" xmlns="http://www.w3.org/2000/svg" viewBox="-543.4413470164678 -1437.9624170842837 2742.3161247333555 2199.245080245925"><desc>Created with Snap</desc><defs></defs><g><g transform="matrix(5.3496,0,0,5.3496,-242.197,-1408.2537)">
<g id="gSkuqi181x3mp">
	<g>
		<path d="M201.21243,348.1283c-10.49316,0-20.94092-0.78418-31.23291-2.37207
			c-45.83106-7.06934-85.31641-28.95801-114.188-63.30078l0,0c-19.96777-23.75195-36.14941-53.38672-45.56494-83.44531
			c-9.9082-31.6333-11.77832-61.13428-5.4082-85.31397c6.92285-26.27734,23.61719-45.02197,48.27783-54.20703
			c57.13867-21.28027,86.83985,6.06152,115.56251,32.50439c6.1084,5.62354,12.4248,11.43799,18.95068,16.75293
			c27.20117,22.15284,50.9082,14.73486,78.36035,6.14551c17.17383-5.37305,34.92383-10.93262,55.42676-9.97949
			c54.07617,2.51025,71.06934,29.24317,75.80273,51.22706c5.5791,25.91162-2.82129,60.30322-23.04785,94.35596
			c-19.3125,32.51367-46.77734,60.03027-73.4668,73.60645C269.6055,339.90857,235.17679,348.1283,201.21243,348.1283z
			 M59.61868,279.23865c28.08057,33.40137,66.50635,54.69434,111.12305,61.57617
			c42.57764,6.56641,87.92139-0.9502,127.67529-21.16992c25.88184-13.16406,52.58594-39.96875,71.43555-71.70312
			c19.58984-32.98047,27.77539-66.05762,22.45898-90.74951c-2.95117-13.70654-9.9541-24.65137-20.81445-32.53028
			c-12.13281-8.80371-29.06738-13.76758-50.33301-14.75439c-19.60645-0.91602-36.94141,4.51221-53.70215,9.75635
			c-27.62988,8.64503-53.72656,16.80714-83.00977-7.04053c-6.64355-5.41064-13.0166-11.27734-19.18018-16.95166
			c-28.88477-26.59131-56.16749-51.70752-110.43067-31.49707c-23.40088,8.71582-38.604,25.80566-45.1875,50.79541
			c-6.13037,23.26807-4.28223,51.81153,5.34424,82.54591C24.22024,226.95837,40.06692,255.98083,59.61868,279.23865z" fill="#5ca4a9" style=""></path>
	</g>
</g>


<desc>Created with Snap</desc><defs></defs></g><g><g transform="matrix(1.024,0,0,-1.024,0,0)"><path d="M48 0L48 10Q48 71 94 134Q141 198 223 270Q270 311 297 339Q324 367 344 409Q365 451 365 505Q365 569 334 604Q303 640 247 640Q210 640 186 624Q163 608 163 586Q163 576 172 563Q182 547 182 533Q182 506 167 491Q152 477 127 477Q101 477 84 493Q68 510 68 542Q68 604 126 638Q184 672 263 672Q359 672 411 624Q464 576 464 491Q464 439 444 402Q425 365 393 337Q361 310 301 270Q213 208 169 162Q126 117 122 83L357 83Q394 83 413 90Q433 97 441 109Q450 122 458 146L487 146L451 0L48 0ZM798 -11Q708 -11 651 31Q594 73 594 149Q594 206 629 250Q665 295 738 334Q675 372 647 412Q619 452 619 501Q619 556 648 594Q678 633 725 652Q772 671 823 671Q893 671 947 636Q1001 602 1001 531Q1001 434 881 363Q953 321 986 279Q1020 238 1020 177Q1020 122 993 79Q966 36 915 12Q865 -11 798 -11ZM853 381Q940 441 940 523Q940 574 907 606Q874 639 819 639Q768 639 733 611Q699 583 699 535Q699 506 714 483Q730 461 761 438Q792 416 853 381ZM804 22Q865 22 902 54Q940 87 940 143Q940 174 924 197Q909 221 874 245Q840 270 764 317Q715 288 685 247Q655 206 655 156Q655 95 697 58Q739 22 804 22ZM1127 0L1127 10Q1127 71 1173 134Q1220 198 1302 270Q1349 311 1376 339Q1403 367 1423 409Q1444 451 1444 505Q1444 569 1413 604Q1382 640 1326 640Q1289 640 1265 624Q1242 608 1242 586Q1242 576 1251 563Q1261 547 1261 533Q1261 506 1246 491Q1231 477 1206 477Q1180 477 1163 493Q1147 510 1147 542Q1147 604 1205 638Q1263 672 1342 672Q1438 672 1490 624Q1543 576 1543 491Q1543 439 1523 402Q1504 365 1472 337Q1440 310 1380 270Q1292 208 1248 162Q1205 117 1201 83L1436 83Q1473 83 1492 90Q1512 97 1520 109Q1529 122 1537 146L1566 146L1530 0L1127 0Z" fill="#5ca4a9" style=""></path></g></g></g></svg>